<?xml version="1.0" standalone="no"?>
<!DOCTYPE svg PUBLIC "-//W3C//DTD SVG 20010904//EN"
 "http://www.w3.org/TR/2001/REC-SVG-20010904/DTD/svg10.dtd">
<svg version="1.0" xmlns="http://www.w3.org/2000/svg"
 width="700.000000pt" height="700.000000pt" viewBox="0 0 700.000000 700.000000"
 preserveAspectRatio="xMidYMid meet">
<metadata>
Created by potrace 1.14, written by Peter Selinger 2001-2017
</metadata>
<g transform="translate(0.000000,700.000000) scale(0.100000,-0.100000)"
fill="#000000" stroke="none">
<path d="M3310 6179 c-761 -76 -1289 -436 -1474 -1004 -75 -231 -92 -488 -51
-750 45 -280 156 -499 349 -690 199 -197 459 -338 810 -439 156 -46 244 -64
566 -121 313 -56 454 -90 581 -140 353 -142 488 -362 457 -747 -36 -456 -407
-728 -989 -728 -293 0 -535 56 -770 176 -185 95 -375 244 -517 406 -42 49 -79
88 -83 88 -10 0 -574 -530 -574 -540 0 -18 123 -155 225 -253 393 -372 854
-571 1435 -618 160 -13 439 -8 585 11 465 59 834 224 1100 490 208 208 335
446 400 755 27 129 38 428 21 571 -75 611 -445 987 -1179 1198 -64 19 -292 71
-507 116 -462 97 -594 134 -735 202 -88 44 -118 65 -185 132 -128 129 -169
236 -169 446 -1 208 46 333 174 460 171 171 435 248 810 237 202 -6 321 -25
474 -74 228 -73 400 -185 583 -377 l108 -115 293 260 293 260 -33 42 c-60 76
-182 199 -273 275 -295 247 -640 394 -1070 458 -122 18 -524 26 -655 13z"/>
</g>
</svg>
